<svg width="24" height="24" viewBox="0 0 24 24" fill="none" xmlns="http://www.w3.org/2000/svg">
<path d="M8.25 17.25V15C8.25 12.713 10.5 10.5 10.5 9" stroke="black" stroke-width="1.5" stroke-linecap="round" stroke-linejoin="round"/>
<path d="M17.2527 17.25V9C17.2524 7.60769 16.6992 6.27249 15.7147 5.28798C14.7302 4.30347 13.395 3.75027 12.0027 3.75C12.0027 1.5 10.2527 0.75 8.25276 0.75V3.75L4.25276 6.608C4.09018 6.72421 3.95245 6.87173 3.84768 7.04191C3.74291 7.21209 3.6732 7.40148 3.64264 7.59898C3.61208 7.79647 3.6213 7.99808 3.66975 8.19196C3.7182 8.38585 3.8049 8.56809 3.92476 8.728L4.60476 9.635C4.7937 9.88699 5.05716 10.0731 5.35781 10.167C5.65845 10.2609 5.98101 10.2577 6.27976 10.158L9.75276 9H12.0027" stroke="black" stroke-width="1.5" stroke-linecap="round" stroke-linejoin="round"/>
<path d="M20.923 21.533C20.634 20.768 19.515 18.189 17.25 17.25H8.25C5.985 18.189 4.866 20.768 4.577 21.533C4.526 21.6661 4.4999 21.8075 4.5 21.95C4.5 22.2948 4.63696 22.6254 4.88076 22.8692C5.12456 23.113 5.45522 23.25 5.8 23.25H19.7C19.8707 23.25 20.0398 23.2164 20.1975 23.151C20.3552 23.0857 20.4985 22.99 20.6192 22.8692C20.74 22.7485 20.8357 22.6052 20.901 22.4475C20.9664 22.2898 21 22.1207 21 21.95C21.0001 21.8075 20.974 21.6661 20.923 21.533Z" stroke="black" stroke-width="1.5" stroke-linecap="round" stroke-linejoin="round"/>
</svg>
