<svg width="24" height="24" viewBox="0 0 24 24" fill="none" xmlns="http://www.w3.org/2000/svg">
<g clip-path="url(#clip0_6406_663)">
<path d="M15.7301 10.5648L16.514 10.1728C16.71 10.0749 17.0039 10.1728 17.1999 10.3688L18.2777 12.5245C18.5717 13.0144 19.0615 13.3083 19.5515 13.3083C19.7475 13.3083 20.0414 13.2104 20.2373 13.1124C20.9232 12.7204 21.2172 11.8386 20.9232 11.1527L19.8454 8.99707C19.4535 8.21319 18.7676 7.52735 17.8857 7.23344C17.0039 6.93944 16.1221 7.03747 15.2402 7.42941L13.0846 8.50719L10.4391 9.87898C10.2431 9.97692 10.0471 9.97692 9.85112 9.78095L8.38139 8.31123C7.79349 7.72332 6.91158 7.72332 6.32367 8.31123C5.73586 8.89913 5.73586 9.78095 6.32367 10.3688L7.79349 11.8386C8.87127 12.9164 10.4391 13.1124 11.7128 12.5245L13.0846 11.8386L14.1624 13.7982L11.3209 15.6599C10.733 16.0518 10.341 16.5417 10.0471 17.1296L8.77333 20.6571C8.47933 21.4409 8.77333 22.2248 9.55712 22.6167C9.75309 22.7148 9.94906 22.7148 10.1451 22.7148C10.733 22.7148 11.2228 22.4208 11.5168 21.8329L12.7906 18.3055C12.7906 18.2075 12.8886 18.1095 12.9866 18.1095L15.3382 16.5418L15.5342 17.1296C16.0241 18.5014 17.2979 19.3833 18.7676 19.3833C19.0615 19.3833 19.3555 19.3833 19.6494 19.2854L21.903 18.6975C22.6869 18.5015 23.1769 17.7176 22.9809 16.9337C22.7849 16.1499 22.0011 15.66 21.2172 15.8559L18.9636 16.4439C18.7676 16.5418 18.4736 16.3457 18.3757 16.1498L18.1797 15.5619" stroke="black" stroke-width="1.5" stroke-miterlimit="10" stroke-linecap="round" stroke-linejoin="round"/>
<path d="M11.6582 7.06648C13.2817 7.06648 14.5977 5.75045 14.5977 4.12694C14.5977 2.50353 13.2817 1.1875 11.6582 1.1875C10.0348 1.1875 8.71875 2.50353 8.71875 4.12694C8.71875 5.75045 10.0348 7.06648 11.6582 7.06648Z" stroke="black" stroke-width="1.5" stroke-miterlimit="10" stroke-linecap="round" stroke-linejoin="round"/>
<path d="M7.15039 1.1875C5.52697 1.1875 4.21094 2.50353 4.21094 4.12694C4.21094 5.09414 4.67802 5.95224 5.39894 6.4879" stroke="black" stroke-width="1.5" stroke-miterlimit="10" stroke-linecap="round" stroke-linejoin="round"/>
<path d="M7.05199 15.3672L6.46408 15.7591C5.87618 16.1511 5.48424 16.6409 5.19033 17.2288L3.91648 20.7563C3.62258 21.5402 3.91649 22.324 4.70036 22.716C4.89633 22.8139 5.0923 22.8139 5.28827 22.8139C5.58227 22.8139 5.87618 22.716 6.07215 22.52" stroke="black" stroke-width="1.5" stroke-miterlimit="10" stroke-linecap="round" stroke-linejoin="round"/>
<path d="M3.47513 8.31593C2.88722 7.72802 2.0054 7.72802 1.4175 8.31593C0.829584 8.90384 0.829584 9.78565 1.4175 10.3735L2.88722 11.8433C3.47513 12.4313 4.35703 12.8232 5.14082 12.8232" stroke="black" stroke-width="1.5" stroke-miterlimit="10" stroke-linecap="round" stroke-linejoin="round"/>
</g>
<defs>
<clipPath id="clip0_6406_663">
<rect width="24" height="24" fill="white"/>
</clipPath>
</defs>
</svg>
