<svg width="24" height="24" viewBox="0 0 24 24" fill="none" xmlns="http://www.w3.org/2000/svg">
<g clip-path="url(#clip0_6406_656)">
<path d="M5.3572 17.9312C3.62332 16.3528 2.53211 14.1906 2.29222 11.8582C2.05233 9.52575 2.6806 7.18671 4.05689 5.28838C5.43318 3.39005 7.46092 2.06562 9.75233 1.56837C12.0437 1.07113 14.438 1.43595 16.4774 2.59307" stroke="black" stroke-width="1.5" stroke-linecap="round" stroke-linejoin="round"/>
<path d="M2.01414 17.8672C0.802864 19.9892 0.39744 21.6358 1.08147 22.3209C2.11999 23.3584 5.36938 21.8915 9.13203 18.9077" stroke="black" stroke-width="1.5" stroke-linecap="round" stroke-linejoin="round"/>
<path d="M13.4421 18.1526L9.86719 14.5777L17.8129 6.63201C18.461 5.9842 19.2733 5.52507 20.1626 5.30389L22.2066 4.79062C22.3478 4.75547 22.4956 4.75742 22.6357 4.7963C22.7758 4.83517 22.9035 4.90965 23.0063 5.01248C23.1092 5.11531 23.1836 5.24299 23.2225 5.38313C23.2614 5.52326 23.2634 5.67106 23.2282 5.81217L22.7169 7.85727C22.4948 8.7463 22.035 9.55817 21.3868 10.2059L13.4421 18.1526Z" stroke="black" stroke-width="1.5" stroke-linecap="round" stroke-linejoin="round"/>
<path d="M9.8654 14.5751L6.93756 13.5995C6.86917 13.5768 6.80772 13.5371 6.75907 13.484C6.71042 13.4308 6.6762 13.3661 6.65968 13.296C6.64315 13.2259 6.64487 13.1528 6.66468 13.0835C6.68448 13.0142 6.7217 12.9512 6.7728 12.9005L7.79335 11.8799C8.237 11.4363 8.79541 11.125 9.40601 10.9809C10.0166 10.8368 10.6553 10.8656 11.2504 11.0641L12.8481 11.5953L9.8654 14.5751Z" stroke="black" stroke-width="1.5" stroke-linecap="round" stroke-linejoin="round"/>
<path d="M13.4375 18.1537L14.4131 21.0825C14.4357 21.1509 14.4755 21.2124 14.5286 21.261C14.5817 21.3097 14.6464 21.3439 14.7165 21.3604C14.7866 21.3769 14.8598 21.3752 14.9291 21.3554C14.9983 21.3356 15.0614 21.2984 15.1121 21.2473L16.1327 20.2267C16.5763 19.7831 16.8875 19.2247 17.0316 18.6141C17.1757 18.0035 17.1469 17.3648 16.9485 16.7696L16.4173 15.1719L13.4375 18.1537Z" stroke="black" stroke-width="1.5" stroke-linecap="round" stroke-linejoin="round"/>
</g>
<defs>
<clipPath id="clip0_6406_656">
<rect width="24" height="24" fill="white"/>
</clipPath>
</defs>
</svg>
